<svg width="25" height="26" viewBox="0 0 25 26" fill="none" xmlns="http://www.w3.org/2000/svg">
<path fill-rule="evenodd" clip-rule="evenodd" d="M20 5H4V21.9554L6.57909 19.9494C7.12075 19.5281 7.87924 19.5281 8.42091 19.9494L12 22.7331L15.5791 19.9494C16.1208 19.5281 16.8792 19.5281 17.4209 19.9494L20 21.9554V5ZM4 4C3.44772 4 3 4.44772 3 5V22.9777C3 23.3938 3.47854 23.6278 3.80697 23.3724L7.19303 20.7388C7.37358 20.5983 7.62641 20.5983 7.80697 20.7388L11.693 23.7612C11.8736 23.9017 12.1264 23.9017 12.307 23.7612L16.193 20.7388C16.3736 20.5983 16.6264 20.5983 16.807 20.7388L20.193 23.3724C20.5215 23.6278 21 23.3938 21 22.9777V5C21 4.44772 20.5523 4 20 4H4Z" fill="#494949"/>
<path d="M17.5 11H6.5C6.22386 11 6 10.7761 6 10.5V8.5C6 8.22386 6.22386 8 6.5 8H17.5C17.7761 8 18 8.22386 18 8.5V10.5C18 10.7761 17.7761 11 17.5 11Z" stroke="#494949" stroke-linecap="round"/>
<path d="M6 14H12" stroke="#494949" stroke-linecap="round"/>
<path d="M6 17H18" stroke="#494949" stroke-linecap="round"/>
<path d="M15 14L18 14" stroke="#494949" stroke-linecap="round"/>
<circle cx="20.5" cy="4.5" r="3.5" fill="#E33F37" stroke="white" stroke-width="2"/>
</svg>
