<svg width="40" height="40" viewBox="0 0 40 40" fill="none" xmlns="http://www.w3.org/2000/svg">
<path opacity="0.5" d="M15.5 4C15.7761 4 16 4.22386 16 4.5C16 4.77614 15.7761 5 15.5 5C10.2448 5 6 9.2445 6 14.5C6 14.7761 5.77614 15 5.5 15C5.22386 15 5 14.7761 5 14.5C5 8.6922 9.69252 4 15.5 4Z" fill="#00D1C1"/>
<path opacity="0.5" d="M15.5 9C15.7761 9 16 9.22386 16 9.5C16 9.77614 15.7761 10 15.5 10C12.8146 10 11 11.8244 11 14.5C11 14.7761 10.7761 15 10.5 15C10.2239 15 10 14.7761 10 14.5C10 11.2733 12.2611 9 15.5 9Z" fill="#00D1C1"/>
<path d="M26.7725 25.1349C26.9741 25.3236 26.9846 25.64 26.796 25.8417C26.6073 26.0433 26.2909 26.0538 26.0893 25.8651L15.55 16.0038C14.7675 15.2729 14.8286 14.1039 15.678 13.4403C16.4799 12.8138 17.6997 12.8609 18.4353 13.5497L30.8413 25.1346C31.0431 25.3231 31.0539 25.6395 30.8655 25.8413C30.677 26.0431 30.3606 26.054 30.1588 25.8655L17.7523 14.2801C17.3777 13.9293 16.7094 13.9035 16.2937 14.2283C15.9253 14.5161 15.9019 14.9641 16.2329 15.2733L26.7725 25.1349Z" fill="black"/>
<path fill-rule="evenodd" clip-rule="evenodd" d="M7.5 36H32.5C33.8801 36 35 34.8801 35 33.5V27.5C35 26.1199 33.8801 25 32.5 25H7.5C6.11986 25 5 26.1199 5 27.5V33.5C5 34.8801 6.11986 36 7.5 36ZM34 33.5C34 34.3279 33.3279 35 32.5 35H7.5C6.67214 35 6 34.3279 6 33.5V27.5C6 26.6721 6.67214 26 7.5 26H32.5C33.3279 26 34 26.6721 34 27.5V33.5Z" fill="black"/>
<path fill-rule="evenodd" clip-rule="evenodd" d="M11.5 31H28.5C29.3291 31 30 30.3291 30 29.5V25.5C30 25.2239 29.7761 25 29.5 25H10.5C10.2239 25 10 25.2239 10 25.5V29.5C10 30.3291 10.6709 31 11.5 31ZM11 29.5V26H29V29.5C29 29.7769 28.7769 30 28.5 30H11.5C11.2231 30 11 29.7769 11 29.5Z" fill="black"/>
</svg>
