<svg width="40" height="40" viewBox="0 0 40 40" fill="none" xmlns="http://www.w3.org/2000/svg">
<path opacity="0.5" fill-rule="evenodd" clip-rule="evenodd" d="M22.1996 29L11 17.8004L13.7994 15L25 26.1996L22.1996 29Z" fill="#00D1C1"/>
<path opacity="0.5" fill-rule="evenodd" clip-rule="evenodd" d="M28.333 10L27 8.66698L27.667 8L29 9.33302L28.333 10Z" fill="#00D1C1"/>
<path opacity="0.5" fill-rule="evenodd" clip-rule="evenodd" d="M31.333 13L30 11.667L30.667 11L32 12.333L31.333 13Z" fill="#00D1C1"/>
<path fill-rule="evenodd" clip-rule="evenodd" d="M8.15186 31.8347C10.8562 34.539 15.2574 34.539 17.9608 31.8347L30.8034 18.9924L20.8611 9.05031L8.01858 21.8926C5.31519 24.597 5.31519 28.9971 8.01858 31.7014L8.15186 31.8347ZM13.0573 34.8533C11.0273 34.8533 8.99728 34.0805 7.45065 32.5359L7.31737 32.4026C4.22807 29.3114 4.22807 24.2827 7.31737 21.1914L20.511 7.99802C20.704 7.80506 21.0183 7.80506 21.2122 7.99802L31.8557 18.6413C32.0486 18.8362 32.0486 19.1495 31.8557 19.3425L18.662 32.5359C17.1174 34.0805 15.0874 34.8533 13.0573 34.8533Z" fill="black"/>
<mask id="mask0" mask-type="alpha" maskUnits="userSpaceOnUse" x="22" y="5" width="13" height="13">
<path fill-rule="evenodd" clip-rule="evenodd" d="M22.5887 5H35V17.4112H22.5887V5Z" fill="white"/>
</mask>
<g mask="url(#mask0)">
<path fill-rule="evenodd" clip-rule="evenodd" d="M23.793 10.4922L29.508 16.2072L33.797 11.9192L28.081 6.2042L23.793 10.4922ZM29.508 17.4112C29.38 17.4112 29.253 17.3622 29.155 17.2642L22.735 10.8452C22.54 10.6502 22.54 10.3352 22.735 10.1392L27.729 5.1462C27.924 4.9512 28.239 4.9512 28.434 5.1462L34.854 11.5662C35.049 11.7612 35.049 12.0762 34.854 12.2712L29.86 17.2642C29.763 17.3622 29.636 17.4112 29.508 17.4112Z" fill="black"/>
</g>
</svg>
