<svg width="40" height="40" viewBox="0 0 40 40" fill="none" xmlns="http://www.w3.org/2000/svg">
<path fill-rule="evenodd" clip-rule="evenodd" d="M28.8536 24.2475L21.8048 17.1964L14.7541 10.1464C14.5589 9.95119 14.2423 9.95119 14.0471 10.1464C9.98431 14.2088 9.98431 20.8902 14.0471 24.9526C18.1098 29.015 24.7908 29.0159 28.8535 24.9546C29.0488 24.7594 29.0488 24.4428 28.8536 24.2475ZM14.41 11.2164L21.0977 17.9035L27.7835 24.5915C24.0862 27.9144 18.3078 27.7989 14.7541 24.2455C11.2005 20.6922 11.0858 14.9134 14.41 11.2164Z" fill="black"/>
<path d="M21.7528 16.8708C21.5806 17.0431 21.3014 17.0431 21.1292 16.8708C20.9569 16.6986 20.9569 16.4194 21.1292 16.2472L24.2472 13.1292C24.4194 12.9569 24.6986 12.9569 24.8708 13.1292C25.0431 13.3014 25.0431 13.5806 24.8708 13.7528L21.7528 16.8708Z" fill="black"/>
<path d="M17.0006 27.2908C17.0006 27.0147 17.2245 26.7908 17.5006 26.7908C17.7768 26.7908 18.0006 27.0147 18.0006 27.2908V31.5001C18.0006 31.7763 17.7768 32.0001 17.5006 32.0001H11.5007C11.1283 32.0001 10.8866 31.6078 11.0541 31.2753L14.0751 25.2753C14.1992 25.0286 14.4999 24.9293 14.7465 25.0535C14.9931 25.1777 15.0924 25.4783 14.9682 25.725L12.3122 31.0001H17.0006V27.2908Z" fill="black"/>
<path opacity="0.5" d="M24.5 5C24.2239 5 24 4.77614 24 4.5C24 4.22386 24.2239 4 24.5 4C30.3075 4 35 8.6922 35 14.5C35 14.7761 34.7761 15 34.5 15C34.2239 15 34 14.7761 34 14.5C34 9.2445 29.7552 5 24.5 5Z" fill="#00D1C1"/>
<path opacity="0.5" d="M24.5 10C24.2239 10 24 9.77614 24 9.5C24 9.22386 24.2239 9 24.5 9C27.7389 9 30 11.2733 30 14.5C30 14.7761 29.7761 15 29.5 15C29.2239 15 29 14.7761 29 14.5C29 11.8244 27.1854 10 24.5 10Z" fill="#00D1C1"/>
<path fill-rule="evenodd" clip-rule="evenodd" d="M6.5 37H22.5C22.7761 37 23 36.7761 23 36.5V34C23 32.3653 21.9078 31 20.5 31H8.5C7.09225 31 6 32.3653 6 34V36.5C6 36.7761 6.22386 37 6.5 37ZM22 34V36H7V34C7 32.8747 7.69975 32 8.5 32H20.5C21.3003 32 22 32.8747 22 34Z" fill="black"/>
</svg>
