<svg width="40" height="40" viewBox="0 0 40 40" fill="none" xmlns="http://www.w3.org/2000/svg">
<path fill-rule="evenodd" clip-rule="evenodd" d="M27.1828 21.5668C28.9812 19.6473 29.9999 17.1266 29.9999 14.449C29.9999 8.24464 24.6043 3.39247 18.3396 4.06182C13.5107 4.57802 9.41325 8.78324 9.03306 13.6077C8.80212 16.5416 9.79001 19.3457 11.72 21.4638C13.4652 23.377 14.4396 25.7936 14.4396 28.282V29.964C14.4396 32.7456 16.706 35 19.4997 35C22.2941 35 24.5598 32.746 24.5598 29.964V28.397C24.5598 25.8256 25.4891 23.3752 27.1828 21.5668ZM18.4458 5.05616C24.1194 4.44996 28.9999 8.83886 28.9999 14.449C28.9999 16.8699 28.0797 19.1469 26.453 20.8831C24.5822 22.8807 23.5598 25.5764 23.5598 28.397V29.964C23.5598 32.1925 21.7429 34 19.4997 34C17.2571 34 15.4396 32.1922 15.4396 29.964V28.282C15.4396 25.5393 14.3689 22.8839 12.459 20.79C10.7133 18.8742 9.82097 16.3414 10.03 13.6862C10.3723 9.34201 14.0952 5.52124 18.4458 5.05616Z" fill="black"/>
<path d="M15.5 29C15.2239 29 15 28.7761 15 28.5C15 28.2239 15.2239 28 15.5 28H23.5C23.7761 28 24 28.2239 24 28.5C24 28.7761 23.7761 29 23.5 29H15.5Z" fill="black"/>
<path opacity="0.5" fill-rule="evenodd" clip-rule="evenodd" d="M17.687 22.0002C17.656 22.0002 17.625 21.9922 17.597 21.9762C17.522 21.9312 17.489 21.8392 17.519 21.7562L19.3841 16.5382L17.13 15.8842C17.072 15.8672 17.025 15.8212 17.008 15.7632C16.99 15.7042 17.003 15.6402 17.042 15.5922L21.6142 10.0642C21.6682 9.99916 21.7612 9.98116 21.8352 10.0212C21.9092 10.0622 21.9452 10.1492 21.9222 10.2312L20.6041 14.8862L22.8702 15.5442C22.9292 15.5612 22.9752 15.6062 22.9922 15.6662C23.0102 15.7262 22.9962 15.7902 22.9572 15.8372L17.823 21.9372C17.788 21.9782 17.737 22.0002 17.687 22.0002Z" fill="#00D1C1"/>
</svg>
