<svg width="40" height="40" viewBox="0 0 40 40" fill="none" xmlns="http://www.w3.org/2000/svg">
<path opacity="0.5" fill-rule="evenodd" clip-rule="evenodd" d="M12 20H28V23H12V20Z" fill="#00D1C1"/>
<path fill-rule="evenodd" clip-rule="evenodd" d="M16.134 34H23.866C26.7018 34 29 31.7015 29 28.866V15.061C29 11.7135 26.2868 9 22.939 9H17.06C13.713 9 11 11.7137 11 15.061V28.866C11 31.7015 13.2982 34 16.134 34ZM28 28.866C28 31.1492 26.1495 33 23.866 33H16.134C13.8505 33 12 31.1492 12 28.866V15.061C12 12.2659 14.2654 10 17.06 10H22.939C25.7345 10 28 12.2658 28 15.061V28.866Z" fill="black"/>
<path d="M24.5455 36C24.7965 36 25 36.2239 25 36.5C25 36.7761 24.7965 37 24.5455 37H15.4545C15.2035 37 15 36.7761 15 36.5C15 36.2239 15.2035 36 15.4545 36H24.5455Z" fill="black"/>
<path d="M19.5 10C19.2239 10 19 9.77614 19 9.5V8.5C19 8.22386 19.2239 8 19.5 8H20.5C20.7761 8 21 8.22386 21 8.5V9.5C21 9.77614 20.7761 10 20.5 10H19.5Z" fill="black"/>
<path d="M15.5 5C15.2239 5 15 4.77614 15 4.5C15 4.22386 15.2239 4 15.5 4H24.5C24.7761 4 25 4.22386 25 4.5C25 4.77614 24.7761 5 24.5 5H15.5Z" fill="black"/>
<path d="M24 9.5C24 9.77614 23.7761 10 23.5 10C23.2239 10 23 9.77614 23 9.5V4.5C23 4.22386 23.2239 4 23.5 4C23.7761 4 24 4.22386 24 4.5V9.5Z" fill="black"/>
<path d="M17 9.5C17 9.77614 16.7761 10 16.5 10C16.2239 10 16 9.77614 16 9.5V4.5C16 4.22386 16.2239 4 16.5 4C16.7761 4 17 4.22386 17 4.5V9.5Z" fill="black"/>
</svg>
