<svg width="16" height="16" viewBox="0 0 16 16" fill="none" xmlns="http://www.w3.org/2000/svg">
<path fill-rule="evenodd" clip-rule="evenodd" d="M7.99999 1.99999C4.68628 1.99999 1.99999 4.68628 1.99999 7.99999C1.99999 11.3137 4.68628 14 7.99999 14C11.3137 14 14 11.3137 14 7.99999C14 4.68628 11.3137 1.99999 7.99999 1.99999ZM0.666656 7.99999C0.666656 3.9499 3.9499 0.666656 7.99999 0.666656C12.0501 0.666656 15.3333 3.9499 15.3333 7.99999C15.3333 12.0501 12.0501 15.3333 7.99999 15.3333C3.9499 15.3333 0.666656 12.0501 0.666656 7.99999Z" fill="#00A699"/>
<path fill-rule="evenodd" clip-rule="evenodd" d="M8.17207 5.34954C7.86172 5.2963 7.54255 5.35462 7.27108 5.51417C6.99961 5.67371 6.79337 5.92418 6.68888 6.22122C6.5667 6.56855 6.18609 6.75106 5.83876 6.62888C5.49143 6.5067 5.30892 6.12609 5.4311 5.77876C5.64008 5.18469 6.05257 4.68374 6.5955 4.36466C7.13844 4.04557 7.77678 3.92893 8.39748 4.03539C9.01817 4.14186 9.58116 4.46456 9.98672 4.94634C10.3922 5.42802 10.6142 6.03764 10.6133 6.66727C10.6131 7.38071 10.2379 7.92601 9.85006 8.2976C9.46208 8.66932 9.00204 8.92726 8.67724 9.08285C8.6513 9.09528 8.63245 9.11305 8.622 9.12839C8.61714 9.13554 8.61497 9.14083 8.61408 9.14361C8.61331 9.14602 8.61332 9.14699 8.61332 9.14715V9.33333C8.61332 9.70152 8.31485 10 7.94666 10C7.57847 10 7.27999 9.70152 7.27999 9.33333V9.14716C7.27999 8.56729 7.64569 8.09858 8.1012 7.88037C8.3655 7.75376 8.68417 7.5681 8.92764 7.33484C9.17113 7.10155 9.27999 6.88068 9.27999 6.66666L9.27999 6.66566C9.28046 6.35078 9.16947 6.0459 8.96669 5.80501C8.76391 5.56412 8.48242 5.40277 8.17207 5.34954Z" fill="#00A699"/>
<path d="M8.66666 11.3333C8.66666 11.7015 8.36818 12 7.99999 12C7.6318 12 7.33332 11.7015 7.33332 11.3333C7.33332 10.9651 7.6318 10.6667 7.99999 10.6667C8.36818 10.6667 8.66666 10.9651 8.66666 11.3333Z" fill="#00A699"/>
</svg>
