<svg width="24" height="24" viewBox="0 0 24 24" fill="none" xmlns="http://www.w3.org/2000/svg">
<path d="M2.70711 13H4V21C4 21.5523 4.44772 22 5 22H10V14C10 13.4477 10.4477 13 11 13H13C13.5523 13 14 13.4477 14 14V22H19C19.5523 22 20 21.5523 20 21V13H21.2929C21.6834 13 22 12.6834 22 12.2929C22 12.1054 21.9255 11.9255 21.7929 11.7929L12.7071 2.70711C12.3166 2.31658 11.6834 2.31658 11.2929 2.70711L2.20711 11.7929C2.0745 11.9255 2 12.1054 2 12.2929C2 12.6834 2.31658 13 2.70711 13Z" fill="url(#paint0_linear)"/>
<defs>
<linearGradient id="paint0_linear" x1="2" y1="12" x2="22" y2="12" gradientUnits="userSpaceOnUse">
<stop stop-color="#00D1C1"/>
<stop offset="1" stop-color="#00D1DC"/>
</linearGradient>
</defs>
</svg>
