<svg width="16" height="16" viewBox="0 0 16 16" fill="none" xmlns="http://www.w3.org/2000/svg">
<path fill-rule="evenodd" clip-rule="evenodd" d="M7.99998 1.99999C4.68627 1.99999 1.99998 4.68628 1.99998 7.99999C1.99998 11.3137 4.68627 14 7.99998 14C11.3137 14 14 11.3137 14 7.99999C14 4.68628 11.3137 1.99999 7.99998 1.99999ZM0.666649 7.99999C0.666649 3.9499 3.94989 0.666656 7.99998 0.666656C12.0501 0.666656 15.3333 3.9499 15.3333 7.99999C15.3333 12.0501 12.0501 15.3333 7.99998 15.3333C3.94989 15.3333 0.666649 12.0501 0.666649 7.99999Z" fill="black"/>
<path fill-rule="evenodd" clip-rule="evenodd" d="M7.99998 7.33332C8.36817 7.33332 8.66665 7.6318 8.66665 7.99999V10.6667C8.66665 11.0348 8.36817 11.3333 7.99998 11.3333C7.63179 11.3333 7.33331 11.0348 7.33331 10.6667V7.99999C7.33331 7.6318 7.63179 7.33332 7.99998 7.33332Z" fill="black"/>
<path d="M8.66665 5.33332C8.66665 5.70151 8.36817 5.99999 7.99998 5.99999C7.63179 5.99999 7.33331 5.70151 7.33331 5.33332C7.33331 4.96513 7.63179 4.66666 7.99998 4.66666C8.36817 4.66666 8.66665 4.96513 8.66665 5.33332Z" fill="black"/>
</svg>
