<svg width="40" height="40" viewBox="0 0 40 40" fill="none" xmlns="http://www.w3.org/2000/svg">
<path fill-rule="evenodd" clip-rule="evenodd" d="M10.361 32H14.64C16.4961 32 18 30.4961 18 28.64V7.36C18 5.50454 16.4958 4 14.64 4H10.361C8.50504 4 7 5.50468 7 7.36V28.64C7 30.496 8.50472 32 10.361 32ZM17 28.64C17 29.9439 15.9439 31 14.64 31H10.361C9.0569 31 8 29.9436 8 28.64V7.36C8 6.05701 9.05727 5 10.361 5H14.64C15.9435 5 17 6.05677 17 7.36V28.64Z" fill="black"/>
<path d="M17.5 8C17.2239 8 17 7.77614 17 7.5C17 7.22386 17.2239 7 17.5 7H32.5C34.4331 7 36 8.56686 36 10.5V32.5C36 34.4331 34.4331 36 32.5 36H7.5C5.56686 36 4 34.4331 4 32.5V10.5C4 8.56686 5.56686 7 7.5 7C7.77614 7 8 7.22386 8 7.5C8 7.77614 7.77614 8 7.5 8C6.11914 8 5 9.11914 5 10.5V32.5C5 33.8809 6.11914 35 7.5 35H32.5C33.8809 35 35 33.8809 35 32.5V10.5C35 9.11914 33.8809 8 32.5 8H17.5Z" fill="black"/>
<path fill-rule="evenodd" clip-rule="evenodd" d="M20 16.5C20 16.7761 20.2239 17 20.5 17H30.5C30.7761 17 31 16.7761 31 16.5V12.5C31 12.2239 30.7761 12 30.5 12H20.5C20.2239 12 20 12.2239 20 12.5V16.5ZM30 16H21V13H30V16Z" fill="black"/>
<path opacity="0.5" d="M22.5 23.5H21.5C20.1667 23.5 20.1667 21.5 21.5 21.5H22.5C23.8333 21.5 23.8333 23.5 22.5 23.5Z" fill="#00D1C1"/>
<path opacity="0.5" d="M26.5 23.5H25.5C24.1667 23.5 24.1667 21.5 25.5 21.5H26.5C27.8333 21.5 27.8333 23.5 26.5 23.5Z" fill="#00D1C1"/>
<path opacity="0.5" d="M30.5 23.5H29.5C28.1667 23.5 28.1667 21.5 29.5 21.5H30.5C31.8333 21.5 31.8333 23.5 30.5 23.5Z" fill="#00D1C1"/>
<path opacity="0.5" d="M22.5 27.5H21.5C20.1667 27.5 20.1667 25.5 21.5 25.5H22.5C23.8333 25.5 23.8333 27.5 22.5 27.5Z" fill="#00D1C1"/>
<path opacity="0.5" d="M26.5 27.5H25.5C24.1667 27.5 24.1667 25.5 25.5 25.5H26.5C27.8333 25.5 27.8333 27.5 26.5 27.5Z" fill="#00D1C1"/>
<path opacity="0.5" d="M30.5 27.5H29.5C28.1667 27.5 28.1667 25.5 29.5 25.5H30.5C31.8333 25.5 31.8333 27.5 30.5 27.5Z" fill="#00D1C1"/>
<path opacity="0.5" d="M22.5 31.5H21.5C20.1667 31.5 20.1667 29.5 21.5 29.5H22.5C23.8333 29.5 23.8333 31.5 22.5 31.5Z" fill="#00D1C1"/>
<path opacity="0.5" d="M26.5 31.5H25.5C24.1667 31.5 24.1667 29.5 25.5 29.5H26.5C27.8333 29.5 27.8333 31.5 26.5 31.5Z" fill="#00D1C1"/>
<path opacity="0.5" d="M30.5 31.5H29.5C28.1667 31.5 28.1667 29.5 29.5 29.5H30.5C31.8333 29.5 31.8333 31.5 30.5 31.5Z" fill="#00D1C1"/>
</svg>
