<svg width="17" height="16" viewBox="0 0 17 16" fill="none" xmlns="http://www.w3.org/2000/svg">
<path d="M2.09091 8.66669C2.09091 7.56212 2.98634 6.66669 4.09091 6.66669H13.4242C14.5288 6.66669 15.4242 7.56212 15.4242 8.66669V13.3334C15.4242 14.4379 14.5288 15.3334 13.4242 15.3334H4.09091C2.98634 15.3334 2.09091 14.4379 2.09091 13.3334V8.66669Z" fill="white"/>
<path fill-rule="evenodd" clip-rule="evenodd" d="M8.75757 2.00002C8.05032 2.00002 7.37205 2.28097 6.87195 2.78107C6.37185 3.28117 6.0909 3.95944 6.0909 4.66669V7.33335C6.0909 7.70154 5.79242 8.00002 5.42424 8.00002C5.05605 8.00002 4.75757 7.70154 4.75757 7.33335V4.66669C4.75757 3.60582 5.179 2.58841 5.92914 1.83826C6.67929 1.08811 7.6967 0.666687 8.75757 0.666687C9.81843 0.666687 10.8358 1.08811 11.586 1.83826C12.3361 2.58841 12.7576 3.60582 12.7576 4.66669V7.33335C12.7576 7.70154 12.4591 8.00002 12.0909 8.00002C11.7227 8.00002 11.4242 7.70154 11.4242 7.33335V4.66669C11.4242 3.95944 11.1433 3.28117 10.6432 2.78107C10.1431 2.28097 9.46481 2.00002 8.75757 2.00002Z" fill="white"/>
</svg>
