<svg width="24" height="24" viewBox="0 0 24 24" fill="none" xmlns="http://www.w3.org/2000/svg">
<path fill-rule="evenodd" clip-rule="evenodd" d="M12 21C16.9706 21 21 16.9706 21 12C21 7.02944 16.9706 3 12 3C7.02944 3 3 7.02944 3 12C3 16.9706 7.02944 21 12 21ZM12 22C17.5228 22 22 17.5228 22 12C22 6.47715 17.5228 2 12 2C6.47715 2 2 6.47715 2 12C2 17.5228 6.47715 22 12 22Z" fill="#494949"/>
<mask id="path-2-outside-1" maskUnits="userSpaceOnUse" x="10" y="5" width="4" height="14" fill="black">
<rect fill="white" x="10" y="5" width="4" height="14"/>
<path fill-rule="evenodd" clip-rule="evenodd" d="M13 7C13 7.55228 12.5523 8 12 8C11.4477 8 11 7.55228 11 7C11 6.44772 11.4477 6 12 6C12.5523 6 13 6.44772 13 7ZM13 12C13 12.5523 12.5523 13 12 13C11.4477 13 11 12.5523 11 12C11 11.4477 11.4477 11 12 11C12.5523 11 13 11.4477 13 12ZM12 18C12.5523 18 13 17.5523 13 17C13 16.4477 12.5523 16 12 16C11.4477 16 11 16.4477 11 17C11 17.5523 11.4477 18 12 18Z"/>
</mask>
<path d="M12 9C13.1046 9 14 8.10457 14 7H12V9ZM10 7C10 8.10457 10.8954 9 12 9V7H10ZM12 5C10.8954 5 10 5.89543 10 7H12V5ZM14 7C14 5.89543 13.1046 5 12 5V7H14ZM12 14C13.1046 14 14 13.1046 14 12H12V14ZM10 12C10 13.1046 10.8954 14 12 14V12H10ZM12 10C10.8954 10 10 10.8954 10 12H12V10ZM14 12C14 10.8954 13.1046 10 12 10V12H14ZM12 17V19C13.1046 19 14 18.1046 14 17H12ZM12 17H14C14 15.8954 13.1046 15 12 15V17ZM12 17V15C10.8954 15 10 15.8954 10 17H12ZM12 17H10C10 18.1046 10.8954 19 12 19V17Z" fill="#494949" mask="url(#path-2-outside-1)"/>
</svg>
