<svg width="24" height="24" viewBox="0 0 24 24" fill="none" xmlns="http://www.w3.org/2000/svg">
<path fill-rule="evenodd" clip-rule="evenodd" d="M7.05859 11H5.05859V21H7.05859V11ZM5.05859 10C4.50631 10 4.05859 10.4477 4.05859 11V21C4.05859 21.5523 4.50631 22 5.05859 22H7.05859C7.61088 22 8.05859 21.5523 8.05859 21V11C8.05859 10.4477 7.61088 10 7.05859 10H5.05859Z" fill="#494949"/>
<path fill-rule="evenodd" clip-rule="evenodd" d="M9.11538 7.04427L6.05861 2.95524L3.00176 7.04427L9.11538 7.04427ZM6.87235 2.39988C6.47353 1.86639 5.6437 1.86638 5.24488 2.39987L2.18803 6.4889C1.71526 7.12131 2.18839 7.99976 3.00176 7.99976L9.11538 7.99976C9.92875 7.99976 10.4019 7.12132 9.92912 6.48891L6.87235 2.39988Z" fill="#494949"/>
<path fill-rule="evenodd" clip-rule="evenodd" d="M16.9414 12.9998L18.9414 12.9998L18.9414 2.99976L16.9414 2.99976L16.9414 12.9998ZM18.9414 13.9998C19.4937 13.9998 19.9414 13.552 19.9414 12.9998L19.9414 2.99976C19.9414 2.44747 19.4937 1.99976 18.9414 1.99976L16.9414 1.99976C16.3891 1.99976 15.9414 2.44747 15.9414 2.99976L15.9414 12.9998C15.9414 13.552 16.3891 13.9998 16.9414 13.9998L18.9414 13.9998Z" fill="#494949"/>
<path fill-rule="evenodd" clip-rule="evenodd" d="M14.8846 16.9555L17.9414 21.0445L20.9982 16.9555L14.8846 16.9555ZM17.1277 21.5999C17.5265 22.1334 18.3563 22.1334 18.7551 21.5999L21.812 17.5109C22.2847 16.8784 21.8116 16 20.9982 16L14.8846 16C14.0712 16 13.5981 16.8784 14.0709 17.5108L17.1277 21.5999Z" fill="#494949"/>
</svg>
