<svg width="40" height="40" viewBox="0 0 40 40" fill="none" xmlns="http://www.w3.org/2000/svg">
<path fill-rule="evenodd" clip-rule="evenodd" d="M22.9834 19.4297C22.9544 19.3707 22.8924 19.3327 22.8234 19.3327H20.7324L22.7964 16.2557C22.8314 16.2037 22.8334 16.1397 22.8014 16.0857C22.7704 16.0337 22.7114 15.9997 22.6474 15.9997H19.8234C19.7564 15.9997 19.6954 16.0357 19.6664 16.0917L17.0184 21.0917C16.9914 21.1437 16.9944 21.2047 17.0264 21.2537C17.0584 21.3037 17.1154 21.3327 17.1764 21.3327H18.9914L17.0134 25.7687C16.9804 25.8447 17.0094 25.9327 17.0844 25.9757C17.1134 25.9917 17.1444 25.9997 17.1764 25.9997C17.2264 25.9997 17.2774 25.9797 17.3114 25.9407L22.9594 19.6077C23.0034 19.5577 23.0124 19.4887 22.9834 19.4297Z" fill="#00D3C1" fill-opacity="0.5"/>
<path fill-rule="evenodd" clip-rule="evenodd" d="M15 37H25C27.8868 37 30 34.8646 30 32V9C30 6.13542 27.8868 4 25 4H15C12.1132 4 10 6.13542 10 9V32C10 34.8646 12.1132 37 15 37ZM29 32C29 34.3146 27.3322 36 25 36H15C12.6678 36 11 34.3146 11 32V9C11 6.68538 12.6678 5 15 5H25C27.3322 5 29 6.68538 29 9V32Z" fill="black"/>
<path d="M11 32C10.2239 32 10 31.7761 10 32C10 31.2239 10.2239 31 11 31H30C29.7761 31 30 31.2239 30 32C30 31.7761 29.7761 32 30 32H11Z" fill="black"/>
<path d="M11 11C10.2239 11 10 10.7761 10 11C10 10.2239 10.2239 10 11 10H30C29.7761 10 30 10.2239 30 11C30 10.7761 29.7761 11 30 11H11Z" fill="black"/>
</svg>
