<svg width="10" height="10" viewBox="0 0 10 10" fill="none" xmlns="http://www.w3.org/2000/svg">
<path d="M9.0909 4.5909C8.8648 4.5909 8.6818 4.774 8.6818 5C8.6818 7.0302 7.0301 8.6818 5 8.6818C2.9699 8.6818 1.3182 7.0301 1.3182 5C1.3182 2.9699 2.9698 1.3182 5 1.3182C5.8427 1.3182 6.6417 1.6002 7.2908 2.1183L6.7804 2.6287C6.6738 2.7353 6.7056 2.8531 6.8509 2.8921L9.0823 3.4899C9.2276 3.5289 9.3139 3.4425 9.2751 3.2971L8.6772 1.0657C8.6382 0.9202 8.5204 0.8886 8.4139 0.9951L7.8724 1.5366C7.0666 0.8658 6.0616 0.5 5 0.5C2.5188 0.5 0.5 2.5187 0.5 5C0.5 7.4813 2.5188 9.5 5 9.5C7.4813 9.5 9.5 7.4812 9.5 5C9.5 4.774 9.3169 4.5909 9.0909 4.5909Z" fill="#888888"/>
</svg>
