<svg width="85" height="30" viewBox="0 0 85 30" fill="none" xmlns="http://www.w3.org/2000/svg">
<path d="M28.4855 6.61188L30.9109 4.21361L30.3924 3.70088C26.1437 -0.500228 19.2355 -0.500228 14.9869 3.70088C10.9223 7.72005 10.755 14.1706 14.4851 18.4048L12.043 20.7865L12.5615 21.2992C16.8102 25.5003 23.7183 25.5003 27.967 21.2992C32.0483 17.28 32.2156 10.8295 28.4855 6.61188ZM16.024 4.74289C19.5032 1.28607 25.0899 1.12067 28.7699 4.23015L27.3815 5.60296C24.4376 3.22123 20.1053 3.38662 17.3621 6.09915C14.6189 8.81168 14.4517 13.112 16.8603 16.0065L15.5055 17.3462C12.3608 13.6909 12.5281 8.18316 16.024 4.74289ZM26.9132 20.2572C23.4173 23.714 17.8472 23.8794 14.1506 20.7534L15.5389 19.3806C18.4828 21.7623 22.8151 21.5969 25.5583 18.8844C28.3015 16.1719 28.4688 11.8715 26.0601 8.97707L27.415 7.63735C30.5764 11.3092 30.4091 16.8169 26.9132 20.2572Z" fill="white"/>
<path d="M49.3776 10.1012H51.5521V11.1432C51.5521 11.474 51.5521 11.7552 51.5521 11.7552C52.6561 9.55537 56.336 9.07572 57.1556 11.7386H57.189C57.9417 10.2666 59.7984 9.55537 61.3707 10.035C62.826 10.4816 63.2441 11.9371 63.2441 13.2934V19.0492H60.986V13.7234C60.986 12.7972 60.7351 11.8544 59.5977 11.9371C58.4937 12.0033 57.7912 12.9791 57.557 13.9715C57.4734 14.3188 57.4567 14.7158 57.4567 15.1293V19.0658H55.1818V13.7234C55.1818 12.731 54.8975 11.8048 53.6931 11.9536C52.6226 12.086 51.9703 13.0287 51.7361 13.988C51.6524 14.3188 51.6357 14.7323 51.6357 15.1293V19.0658H49.3776V10.1012Z" fill="white"/>
<path d="M79.469 17.1641C78.8836 17.1641 78.549 16.916 78.549 15.9401V8.57993V6.59515L76.3076 8.81149V16.2709C76.3076 18.8346 77.8465 19.1489 79.101 19.1489C79.469 19.1489 79.8035 19.0992 79.8035 19.0992V17.1475C79.8035 17.1475 79.6363 17.1641 79.469 17.1641Z" fill="white"/>
<path d="M73.6482 11.6732C72.862 10.3996 71.4235 9.77108 69.9181 9.91993C68.9646 10.0192 67.9443 10.5154 67.4592 11.3754C67.4592 11.3754 67.4592 11.0943 67.4592 10.7635V10.1184H65.4018V23.3172L67.66 21.0843V18.8349C67.66 18.3718 67.66 18.0575 67.66 18.0575C68.4127 19.1491 69.9181 19.4634 71.1559 19.1988C74.4176 18.4876 75.2205 14.1872 73.6482 11.6732ZM69.8512 17.3959C68.4628 17.3959 67.6934 16.1389 67.6098 14.8984C67.5429 13.8564 67.8272 12.6325 68.8141 12.0866C69.6337 11.6401 70.7042 11.7559 71.3566 12.4174C72.7951 13.8564 72.2766 17.3959 69.8512 17.3959Z" fill="white"/>
<path d="M47.2027 10.1017H44.9446V19.0663H47.2027V10.1017Z" fill="white"/>
<path d="M42.9207 14.8655C42.5695 13.3108 41.0808 12.5499 39.7092 11.9876C38.806 11.6072 37.0162 11.1441 37.0664 9.90358C37.1165 8.66309 38.5718 8.34884 39.5754 8.51424C40.1441 8.61347 40.6961 8.82849 41.1812 9.14275L42.6866 7.65417C41.3317 6.36406 38.9732 6.04981 37.2671 6.66178C35.4271 7.32337 34.1559 9.35777 35.009 11.2433C35.6279 12.6326 37.2336 13.2115 38.5383 13.7739C39.5419 14.2039 41.315 14.9648 40.5121 16.3706C39.9434 17.3796 38.4881 17.2638 37.5514 16.933C37.0329 16.7511 36.5144 16.4699 36.0628 16.1391L34.5573 17.6277C35.8788 18.9508 38.0365 19.4967 39.843 19.1659C41.9004 18.802 43.3891 16.9495 42.9207 14.8655Z" fill="white"/>
</svg>
