<svg width="40" height="40" viewBox="0 0 40 40" fill="none" xmlns="http://www.w3.org/2000/svg">
<path d="M15 23V17.5C15 16.6716 15.6711 16 16.5 16H30.5C30.7761 16 31 16.2239 31 16.5C31 16.7761 30.7761 17 30.5 17H16.5C16.2236 17 16 17.2237 16 17.5V23.5C16 23.7761 15.7761 24 15.5 24H9.5C9.22386 24 9 23.7761 9 23.5V13.5C9 11.5669 10.5669 10 12.5 10H30.5C30.7761 10 31 10.2239 31 10.5C31 10.7761 30.7761 11 30.5 11H12.5C11.1191 11 10 12.1191 10 13.5V23H15Z" fill="black"/>
<path fill-rule="evenodd" clip-rule="evenodd" d="M15 4C13.8956 4 13 4.89515 13 6C13 7.10485 13.8956 8 15 8H25C26.1044 8 27 7.10485 27 6C27 4.89515 26.1044 4 25 4H15ZM15 7C14.4477 7 14 6.55246 14 6C14 5.44754 14.4477 5 15 5H25C25.5523 5 26 5.44754 26 6C26 6.55246 25.5523 7 25 7H15Z" fill="black"/>
<path fill-rule="evenodd" clip-rule="evenodd" d="M18 10.5C18 10.7761 18.2239 11 18.5 11H21.5C21.7761 11 22 10.7761 22 10.5V7.5C22 7.22386 21.7761 7 21.5 7H18.5C18.2239 7 18 7.22386 18 7.5V10.5ZM21 8V10H19V8H21Z" fill="black"/>
<path opacity="0.5" fill-rule="evenodd" clip-rule="evenodd" d="M12.5 37C10.5698 37 9 35.428 9 33.4949C9 31.7299 11.772 27.6608 12.0886 27.2018C12.2743 26.9327 12.7257 26.9327 12.9114 27.2018C13.228 27.6608 16 31.7299 16 33.4949C16 35.428 14.4302 37 12.5 37Z" fill="#00D1C1"/>
</svg>
